<svg width="17" height="16" viewBox="0 0 17 16" fill="none" xmlns="http://www.w3.org/2000/svg">
  <path fill-rule="evenodd" clip-rule="evenodd" d="M8.5 0C3.806 0 0 3.668 0 8.192c0 3.62 2.436 6.69 5.813 7.774.425.075.58-.178.58-.395 0-.195-.007-.84-.01-1.525-2.366.496-2.865-.966-2.865-.966-.386-.947-.943-1.199-.943-1.199-.772-.508.058-.498.058-.498.853.058 1.303.844 1.303.844.758 1.253 1.988.89 2.473.681.077-.53.297-.89.54-1.095-1.888-.207-3.873-.91-3.873-4.049 0-.894.332-1.625.876-2.199-.088-.206-.38-1.04.083-2.168 0 0 .714-.22 2.339.84A8.435 8.435 0 018.5 4.104c.723.004 1.45.094 2.13.276 1.623-1.06 2.337-.84 2.337-.84.464 1.129.172 1.962.084 2.168.545.574.875 1.305.875 2.199 0 3.147-1.987 3.839-3.88 4.041.305.254.577.753.577 1.517 0 1.096-.01 1.979-.01 2.248 0 .218.153.474.584.393C14.568 14.88 17 11.81 17 8.192 17 3.668 13.194 0 8.5 0z" fill="#E7E4F5"/>
</svg>