<svg width="15" height="14" viewBox="0 0 17 17" fill="none" xmlns="http://www.w3.org/2000/svg">
  <path fill-rule="evenodd" clip-rule="evenodd" d="M8.5 0C3.813 0 0 3.813 0 8.5C0 13.187 3.813 17 8.5 17C13.187 17 17 13.187 17 8.5C17 3.813 13.187 0 8.5 0ZM4.425 6.713H6.638V12.75H4.425V6.713ZM6.767 4.767C6.767 5.337 6.308 5.796 5.525 5.796H5.512C4.758 5.796 4.3 5.337 4.3 4.767C4.3 4.183 4.771 3.737 5.538 3.737C6.308 3.737 6.754 4.183 6.767 4.767ZM12.717 12.75H10.504V9.475C10.504 8.563 10.175 7.938 9.367 7.938C8.754 7.938 8.396 8.367 8.237 8.783C8.179 8.933 8.167 9.146 8.167 9.358V12.75H5.954V8.929C5.954 8.042 5.929 7.296 5.904 6.713H7.85L7.954 7.679H7.992C8.283 7.217 8.992 6.542 10.163 6.542C11.596 6.542 12.717 7.513 12.717 9.225V12.75Z" fill="#E7E4F5"/>
</svg>