<svg width="143" height="19" viewBox="0 0 143 19" fill="none" xmlns="http://www.w3.org/2000/svg">
<path d="M3.98438 9.88281C2.82292 9.4401 2.03646 8.97656 1.625 8.49219C1.21354 8.0026 1.00781 7.34635 1.00781 6.52344C1.00781 5.46615 1.34635 4.63542 2.02344 4.03125C2.70052 3.42708 3.63021 3.125 4.8125 3.125C5.34896 3.125 5.88542 3.1875 6.42188 3.3125C6.95833 3.43229 7.48958 3.61198 8.01562 3.85156V6.10156C7.52083 5.7526 7.01823 5.48698 6.50781 5.30469C5.9974 5.1224 5.49219 5.03125 4.99219 5.03125C4.4349 5.03125 4.00781 5.14323 3.71094 5.36719C3.41406 5.59115 3.26562 5.91146 3.26562 6.32812C3.26562 6.65104 3.3724 6.91927 3.58594 7.13281C3.80469 7.34115 4.25781 7.57292 4.94531 7.82812L5.9375 8.20312C6.875 8.54688 7.5651 9.0026 8.00781 9.57031C8.45052 10.138 8.67188 10.8542 8.67188 11.7188C8.67188 12.8958 8.32292 13.776 7.625 14.3594C6.93229 14.9375 5.88281 15.2266 4.47656 15.2266C3.89844 15.2266 3.31771 15.1562 2.73438 15.0156C2.15625 14.8802 1.59635 14.6771 1.05469 14.4062V12.0234C1.66927 12.4609 2.26302 12.7865 2.83594 13C3.41406 13.2135 3.98438 13.3203 4.54688 13.3203C5.11458 13.3203 5.55469 13.1927 5.86719 12.9375C6.17969 12.6771 6.33594 12.3151 6.33594 11.8516C6.33594 11.5026 6.23177 11.1979 6.02344 10.9375C5.8151 10.6719 5.51302 10.4635 5.11719 10.3125L3.98438 9.88281ZM15.1094 10.8906C14.2552 10.8906 13.6589 11 13.3203 11.2188C12.9818 11.4375 12.8125 11.8125 12.8125 12.3438C12.8125 12.7396 12.9297 13.0547 13.1641 13.2891C13.3984 13.5234 13.7161 13.6406 14.1172 13.6406C14.7214 13.6406 15.1901 13.4141 15.5234 12.9609C15.8568 12.5026 16.0234 11.8646 16.0234 11.0469V10.8906H15.1094ZM18.2969 10.0078V15H16.0234V14.0234C15.7474 14.4089 15.3932 14.7057 14.9609 14.9141C14.5286 15.1224 14.0521 15.2266 13.5312 15.2266C12.5365 15.2266 11.7604 14.9635 11.2031 14.4375C10.651 13.9115 10.375 13.1771 10.375 12.2344C10.375 11.2135 10.7057 10.4609 11.3672 9.97656C12.0286 9.48698 13.0521 9.24219 14.4375 9.24219H16.0234V8.85938C16.0234 8.48958 15.888 8.21094 15.6172 8.02344C15.3516 7.83073 14.9583 7.73438 14.4375 7.73438C13.8906 7.73438 13.3594 7.80469 12.8438 7.94531C12.3333 8.08073 11.7995 8.29948 11.2422 8.60156V6.64844C11.7474 6.4401 12.2604 6.28646 12.7812 6.1875C13.3021 6.08854 13.8542 6.03906 14.4375 6.03906C15.8594 6.03906 16.8568 6.32812 17.4297 6.90625C18.0078 7.48438 18.2969 8.51823 18.2969 10.0078ZM24.6719 7.125C24.8438 6.75521 25.0625 6.48177 25.3281 6.30469C25.5938 6.1276 25.9193 6.03906 26.3047 6.03906C27.0599 6.03906 27.5807 6.29948 27.8672 6.82031C28.1589 7.34115 28.3047 8.42448 28.3047 10.0703V15H26.4297V9.38281C26.4297 8.73177 26.3802 8.29688 26.2812 8.07812C26.1823 7.85938 26.0026 7.75 25.7422 7.75C25.4818 7.75 25.2995 7.86198 25.1953 8.08594C25.0911 8.3099 25.0391 8.74219 25.0391 9.38281V15H23.1875V9.38281C23.1875 8.74219 23.1354 8.3099 23.0312 8.08594C22.9271 7.86198 22.7448 7.75 22.4844 7.75C22.224 7.75 22.0443 7.85938 21.9453 8.07812C21.8464 8.29688 21.7969 8.73177 21.7969 9.38281V15H19.9219V6.25H21.5859V7.15625C21.7161 6.8125 21.9245 6.54167 22.2109 6.34375C22.4974 6.14062 22.8177 6.03906 23.1719 6.03906C23.526 6.03906 23.849 6.14583 24.1406 6.35938C24.4323 6.56771 24.6094 6.82292 24.6719 7.125ZM30.1719 11.9453V6.25H32.4609V11.5938C32.4609 12.224 32.5495 12.6745 32.7266 12.9453C32.9036 13.2161 33.1979 13.3516 33.6094 13.3516C34.0208 13.3516 34.3411 13.1693 34.5703 12.8047C34.8047 12.4401 34.9219 11.9297 34.9219 11.2734V6.25H37.2109V15H34.9219V13.7031C34.7604 14.1875 34.4844 14.5625 34.0938 14.8281C33.7083 15.0938 33.2422 15.2266 32.6953 15.2266C31.862 15.2266 31.2318 14.9505 30.8047 14.3984C30.3828 13.8464 30.1719 13.0286 30.1719 11.9453ZM47.1719 14.5703C46.6406 14.7891 46.099 14.9531 45.5469 15.0625C44.9948 15.1719 44.4115 15.2266 43.7969 15.2266C42.3333 15.2266 41.2135 14.8359 40.4375 14.0547C39.6667 13.2682 39.2812 12.138 39.2812 10.6641C39.2812 9.23698 39.6536 8.10938 40.3984 7.28125C41.1432 6.45312 42.1589 6.03906 43.4453 6.03906C44.7422 6.03906 45.7474 6.42448 46.4609 7.19531C47.1797 7.96094 47.5391 9.04167 47.5391 10.4375V11.3672H41.6094C41.6146 12.0547 41.8177 12.5677 42.2188 12.9062C42.6198 13.2448 43.2188 13.4141 44.0156 13.4141C44.5417 13.4141 45.0599 13.3385 45.5703 13.1875C46.0807 13.0365 46.6146 12.7969 47.1719 12.4688V14.5703ZM45.2344 9.64844C45.224 9.04427 45.0677 8.58854 44.7656 8.28125C44.4688 7.96875 44.0286 7.8125 43.4453 7.8125C42.9193 7.8125 42.5 7.97396 42.1875 8.29688C41.875 8.61458 41.6901 9.06771 41.6328 9.65625L45.2344 9.64844ZM51.2266 11.3516V4.60156H48.9062V2.84375H53.5156V11.3516C53.5156 12.0391 53.6224 12.526 53.8359 12.8125C54.0495 13.099 54.4115 13.2422 54.9219 13.2422H56.75V15H54.2812C53.1927 15 52.4115 14.7188 51.9375 14.1562C51.4635 13.5938 51.2266 12.6589 51.2266 11.3516ZM72.2969 5.44531L71.2109 10.2188H73.3906L72.2969 5.44531ZM70.8906 3.33594H73.7109L76.8594 15H74.5547L73.8359 12.1172H70.75L70.0469 15H67.7422L70.8906 3.33594ZM83.3047 7.49219V2.84375H85.5859V15H83.3047V13.7031C83.0599 14.2083 82.7422 14.5885 82.3516 14.8438C81.9661 15.099 81.5104 15.2266 80.9844 15.2266C79.9844 15.2266 79.2083 14.8255 78.6562 14.0234C78.1042 13.2214 77.8281 12.0911 77.8281 10.6328C77.8281 9.15365 78.1068 8.01823 78.6641 7.22656C79.2266 6.4349 80.026 6.03906 81.0625 6.03906C81.5312 6.03906 81.9505 6.16146 82.3203 6.40625C82.6953 6.64583 83.0234 7.00781 83.3047 7.49219ZM80.1172 10.6484C80.1172 11.4922 80.2578 12.1536 80.5391 12.6328C80.8203 13.112 81.2083 13.3516 81.7031 13.3516C82.1979 13.3516 82.5885 13.112 82.875 12.6328C83.1615 12.1536 83.3047 11.4922 83.3047 10.6484C83.3047 9.80469 83.1615 9.14323 82.875 8.66406C82.5885 8.1849 82.1979 7.94531 81.7031 7.94531C81.2083 7.94531 80.8203 8.1849 80.5391 8.66406C80.2578 9.14323 80.1172 9.80469 80.1172 10.6484ZM95.375 14.5703C94.8438 14.7891 94.3021 14.9531 93.75 15.0625C93.1979 15.1719 92.6146 15.2266 92 15.2266C90.5365 15.2266 89.4167 14.8359 88.6406 14.0547C87.8698 13.2682 87.4844 12.138 87.4844 10.6641C87.4844 9.23698 87.8568 8.10938 88.6016 7.28125C89.3464 6.45312 90.362 6.03906 91.6484 6.03906C92.9453 6.03906 93.9505 6.42448 94.6641 7.19531C95.3828 7.96094 95.7422 9.04167 95.7422 10.4375V11.3672H89.8125C89.8177 12.0547 90.0208 12.5677 90.4219 12.9062C90.8229 13.2448 91.4219 13.4141 92.2188 13.4141C92.7448 13.4141 93.263 13.3385 93.7734 13.1875C94.2839 13.0365 94.8177 12.7969 95.375 12.4688V14.5703ZM93.4375 9.64844C93.4271 9.04427 93.2708 8.58854 92.9688 8.28125C92.6719 7.96875 92.2318 7.8125 91.6484 7.8125C91.1224 7.8125 90.7031 7.97396 90.3906 8.29688C90.0781 8.61458 89.8932 9.06771 89.8359 9.65625L93.4375 9.64844ZM101.219 7.89844C100.672 7.89844 100.242 8.14062 99.9297 8.625C99.6172 9.10417 99.4609 9.77344 99.4609 10.6328C99.4609 11.4922 99.6172 12.1641 99.9297 12.6484C100.242 13.1276 100.672 13.3672 101.219 13.3672C101.771 13.3672 102.203 13.1276 102.516 12.6484C102.828 12.1641 102.984 11.4922 102.984 10.6328C102.984 9.77344 102.828 9.10417 102.516 8.625C102.203 8.14062 101.771 7.89844 101.219 7.89844ZM97.1719 10.6328C97.1719 9.22135 97.5365 8.10417 98.2656 7.28125C99 6.45312 99.9844 6.03906 101.219 6.03906C102.458 6.03906 103.443 6.45312 104.172 7.28125C104.906 8.10417 105.273 9.22135 105.273 10.6328C105.273 12.0443 104.906 13.1641 104.172 13.9922C103.443 14.8151 102.458 15.2266 101.219 15.2266C99.9844 15.2266 99 14.8151 98.2656 13.9922C97.5365 13.1641 97.1719 12.0443 97.1719 10.6328ZM111.602 15.9453C111.294 16.7682 110.924 17.3672 110.492 17.7422C110.065 18.1224 109.544 18.3125 108.93 18.3125H107.039V16.5703H107.969C108.438 16.5703 108.781 16.4896 109 16.3281C109.219 16.1719 109.44 15.8047 109.664 15.2266L109.836 14.7578L106.508 6.25H108.914L110.914 11.9297L112.828 6.25H115.234L111.602 15.9453ZM124.297 14.5703C123.766 14.7891 123.224 14.9531 122.672 15.0625C122.12 15.1719 121.536 15.2266 120.922 15.2266C119.458 15.2266 118.339 14.8359 117.562 14.0547C116.792 13.2682 116.406 12.138 116.406 10.6641C116.406 9.23698 116.779 8.10938 117.523 7.28125C118.268 6.45312 119.284 6.03906 120.57 6.03906C121.867 6.03906 122.872 6.42448 123.586 7.19531C124.305 7.96094 124.664 9.04167 124.664 10.4375V11.3672H118.734C118.74 12.0547 118.943 12.5677 119.344 12.9062C119.745 13.2448 120.344 13.4141 121.141 13.4141C121.667 13.4141 122.185 13.3385 122.695 13.1875C123.206 13.0365 123.74 12.7969 124.297 12.4688V14.5703ZM122.359 9.64844C122.349 9.04427 122.193 8.58854 121.891 8.28125C121.594 7.96875 121.154 7.8125 120.57 7.8125C120.044 7.8125 119.625 7.97396 119.312 8.29688C119 8.61458 118.815 9.06771 118.758 9.65625L122.359 9.64844Z" fill="#F0F0F0"/>
<line x1="61.7822" x2="61.7822" y2="19" stroke="white"/>
</svg>
